<?xml version="1.0" standalone="no"?>
<svg xmlns="http://www.w3.org/2000/svg" width="500" height="500"><defs><clipPath id="clip-path-dot-color"><path d="M 28 148v 12h 12v -6a 6 6, 0, 0, 0, -6 -6" transform="rotate(-90,34,154)"/><rect x="28" y="160" width="12" height="12" transform="rotate(0,34,166)"/><path d="M 28 172v 12h 6a 6 6, 0, 0, 0, 0 -12" transform="rotate(90,34,178)"/><path d="M 28 196v 12h 6a 6 6, 0, 0, 0, 0 -12" transform="rotate(-90,34,202)"/><path d="M 28 208v 12h 6a 6 6, 0, 0, 0, 0 -12" transform="rotate(90,34,214)"/><circle cx="34" cy="262" r="6" transform="rotate(0,34,262)"/><circle cx="34" cy="286" r="6" transform="rotate(0,34,286)"/><circle cx="34" cy="334" r="6" transform="rotate(0,34,334)"/><circle cx="34" cy="358" r="6" transform="rotate(0,34,358)"/><path d="M 40 136v 12h 12v -6a 6 6, 0, 0, 0, -6 -6" transform="rotate(-90,46,142)"/><path d="M 40 148v 12h 12v -6a 6 6, 0, 0, 0, -6 -6" transform="rotate(90,46,154)"/><path d="M 40 232v 12h 6a 6 6, 0, 0, 0, 0 -12" transform="rotate(-90,46,238)"/><path d="M 40 244v 12h 12v -6a 6 6, 0, 0, 0, -6 -6" transform="rotate(180,46,250)"/><path d="M 40 268v 12h 6a 6 6, 0, 0, 0, 0 -12" transform="rotate(180,46,274)"/><path d="M 40 304v 12h 6a 6 6, 0, 0, 0, 0 -12" transform="rotate(-90,46,310)"/><path d="M 40 316v 12h 12v -6a 6 6, 0, 0, 0, -6 -6" transform="rotate(180,46,322)"/><circle cx="46" cy="346" r="6" transform="rotate(0,46,346)"/><path d="M 40 364v 12h 6a 6 6, 0, 0, 0, 0 -12" transform="rotate(180,46,370)"/><path d="M 52 124v 12h 6a 6 6, 0, 0, 0, 0 -12" transform="rotate(-90,58,130)"/><path d="M 52 136v 12h 12v -6a 6 6, 0, 0, 0, -6 -6" transform="rotate(90,58,142)"/><path d="M 52 160v 12h 12v -6a 6 6, 0, 0, 0, -6 -6" transform="rotate(-90,58,166)"/><path d="M 52 172v 12h 6a 6 6, 0, 0, 0, 0 -12" transform="rotate(90,58,178)"/><path d="M 52 208v 12h 6a 6 6, 0, 0, 0, 0 -12" transform="rotate(-90,58,214)"/><path d="M 52 220v 12h 12v -6a 6 6, 0, 0, 0, -6 -6" transform="rotate(180,58,226)"/><rect x="52" y="244" width="12" height="12" transform="rotate(0,58,250)"/><rect x="52" y="256" width="12" height="12" transform="rotate(0,58,262)"/><rect x="52" y="268" width="12" height="12" transform="rotate(0,58,274)"/><path d="M 52 280v 12h 6a 6 6, 0, 0, 0, 0 -12" transform="rotate(90,58,286)"/><rect x="52" y="316" width="12" height="12" transform="rotate(0,58,322)"/><path d="M 52 352v 12h 12v -6a 6 6, 0, 0, 0, -6 -6" transform="rotate(-90,58,358)"/><path d="M 52 364v 12h 12v -6a 6 6, 0, 0, 0, -6 -6" transform="rotate(90,58,370)"/><path d="M 64 148v 12h 6a 6 6, 0, 0, 0, 0 -12" transform="rotate(-90,70,154)"/><path d="M 64 160v 12h 12v -6a 6 6, 0, 0, 0, -6 -6" transform="rotate(90,70,166)"/><path d="M 64 184v 12h 6a 6 6, 0, 0, 0, 0 -12" transform="rotate(180,70,190)"/><path d="M 64 220v 12h 6a 6 6, 0, 0, 0, 0 -12" transform="rotate(0,70,226)"/><path d="M 64 244v 12h 12v -6a 6 6, 0, 0, 0, -6 -6" transform="rotate(0,70,250)"/><path d="M 64 256v 12h 12v -6a 6 6, 0, 0, 0, -6 -6" transform="rotate(90,70,262)"/><circle cx="70" cy="298" r="6" transform="rotate(0,70,298)"/><path d="M 64 316v 12h 12v -6a 6 6, 0, 0, 0, -6 -6" transform="rotate(0,70,322)"/><path d="M 64 328v 12h 6a 6 6, 0, 0, 0, 0 -12" transform="rotate(90,70,334)"/><rect x="64" y="352" width="12" height="12" transform="rotate(0,70,358)"/><path d="M 76 124v 12h 12v -6a 6 6, 0, 0, 0, -6 -6" transform="rotate(-90,82,130)"/><path d="M 76 136v 12h 6a 6 6, 0, 0, 0, 0 -12" transform="rotate(90,82,142)"/><path d="M 76 172v 12h 6a 6 6, 0, 0, 0, 0 -12" transform="rotate(-90,82,178)"/><rect x="76" y="184" width="12" height="12" transform="rotate(0,82,190)"/><rect x="76" y="196" width="12" height="12" transform="rotate(0,82,202)"/><path d="M 76 208v 12h 12v -6a 6 6, 0, 0, 0, -6 -6" transform="rotate(180,82,214)"/><path d="M 76 268v 12h 12v -6a 6 6, 0, 0, 0, -6 -6" transform="rotate(-90,82,274)"/><path d="M 76 280v 12h 6a 6 6, 0, 0, 0, 0 -12" transform="rotate(90,82,286)"/><circle cx="82" cy="310" r="6" transform="rotate(0,82,310)"/><path d="M 76 340v 12h 6a 6 6, 0, 0, 0, 0 -12" transform="rotate(-90,82,346)"/><rect x="76" y="352" width="12" height="12" transform="rotate(0,82,358)"/><path d="M 76 364v 12h 12v -6a 6 6, 0, 0, 0, -6 -6" transform="rotate(180,82,370)"/><rect x="88" y="124" width="12" height="12" transform="rotate(0,94,130)"/><circle cx="94" cy="166" r="6" transform="rotate(0,94,166)"/><path d="M 88 184v 12h 6a 6 6, 0, 0, 0, 0 -12" transform="rotate(0,94,190)"/><path d="M 88 208v 12h 12v -6a 6 6, 0, 0, 0, -6 -6" transform="rotate(0,94,214)"/><rect x="88" y="220" width="12" height="12" transform="rotate(0,94,226)"/><rect x="88" y="232" width="12" height="12" transform="rotate(0,94,238)"/><rect x="88" y="244" width="12" height="12" transform="rotate(0,94,250)"/><rect x="88" y="256" width="12" height="12" transform="rotate(0,94,262)"/><rect x="88" y="268" width="12" height="12" transform="rotate(0,94,274)"/><path d="M 88 292v 12h 6a 6 6, 0, 0, 0, 0 -12" transform="rotate(180,94,298)"/><rect x="88" y="364" width="12" height="12" transform="rotate(0,94,370)"/><path d="M 100 124v 12h 6a 6 6, 0, 0, 0, 0 -12" transform="rotate(0,106,130)"/><path d="M 100 148v 12h 6a 6 6, 0, 0, 0, 0 -12" transform="rotate(180,106,154)"/><circle cx="106" cy="178" r="6" transform="rotate(0,106,178)"/><path d="M 100 196v 12h 6a 6 6, 0, 0, 0, 0 -12" transform="rotate(180,106,202)"/><rect x="100" y="220" width="12" height="12" transform="rotate(0,106,226)"/><rect x="100" y="244" width="12" height="12" transform="rotate(0,106,250)"/><path d="M 100 268v 12h 6a 6 6, 0, 0, 0, 0 -12" transform="rotate(0,106,274)"/><path d="M 100 292v 12h 6a 6 6, 0, 0, 0, 0 -12" transform="rotate(0,106,298)"/><circle cx="106" cy="322" r="6" transform="rotate(0,106,322)"/><circle cx="106" cy="346" r="6" transform="rotate(0,106,346)"/><path d="M 100 364v 12h 6a 6 6, 0, 0, 0, 0 -12" transform="rotate(0,106,370)"/><path d="M 112 136v 12h 12v -6a 6 6, 0, 0, 0, -6 -6" transform="rotate(-90,118,142)"/><path d="M 112 148v 12h 12v -6a 6 6, 0, 0, 0, -6 -6" transform="rotate(90,118,154)"/><path d="M 112 184v 12h 6a 6 6, 0, 0, 0, 0 -12" transform="rotate(-90,118,190)"/><rect x="112" y="196" width="12" height="12" transform="rotate(0,118,202)"/><rect x="112" y="220" width="12" height="12" transform="rotate(0,118,226)"/><path d="M 112 244v 12h 12v -6a 6 6, 0, 0, 0, -6 -6" transform="rotate(0,118,250)"/><path d="M 112 256v 12h 6a 6 6, 0, 0, 0, 0 -12" transform="rotate(90,118,262)"/><path d="M 112 280v 12h 6a 6 6, 0, 0, 0, 0 -12" transform="rotate(180,118,286)"/><circle cx="118" cy="310" r="6" transform="rotate(0,118,310)"/><path d="M 112 328v 12h 6a 6 6, 0, 0, 0, 0 -12" transform="rotate(180,118,334)"/><path d="M 124 40v 12h 6a 6 6, 0, 0, 0, 0 -12" transform="rotate(180,130,46)"/><path d="M 124 76v 12h 6a 6 6, 0, 0, 0, 0 -12" transform="rotate(180,130,82)"/><circle cx="130" cy="106" r="6" transform="rotate(0,130,106)"/><path d="M 124 124v 12h 12v -6a 6 6, 0, 0, 0, -6 -6" transform="rotate(-90,130,130)"/><rect x="124" y="136" width="12" height="12" transform="rotate(0,130,142)"/><rect x="124" y="196" width="12" height="12" transform="rotate(0,130,202)"/><rect x="124" y="208" width="12" height="12" transform="rotate(0,130,214)"/><rect x="124" y="220" width="12" height="12" transform="rotate(0,130,226)"/><path d="M 124 232v 12h 12v -6a 6 6, 0, 0, 0, -6 -6" transform="rotate(180,130,238)"/><path d="M 124 268v 12h 12v -6a 6 6, 0, 0, 0, -6 -6" transform="rotate(-90,130,274)"/><rect x="124" y="280" width="12" height="12" transform="rotate(0,130,286)"/><path d="M 124 292v 12h 6a 6 6, 0, 0, 0, 0 -12" transform="rotate(90,130,298)"/><path d="M 124 316v 12h 12v -6a 6 6, 0, 0, 0, -6 -6" transform="rotate(-90,130,322)"/><rect x="124" y="328" width="12" height="12" transform="rotate(0,130,334)"/><circle cx="130" cy="358" r="6" transform="rotate(0,130,358)"/><circle cx="130" cy="382" r="6" transform="rotate(0,130,382)"/><path d="M 124 400v 12h 6a 6 6, 0, 0, 0, 0 -12" transform="rotate(-90,130,406)"/><path d="M 124 412v 12h 12v -6a 6 6, 0, 0, 0, -6 -6" transform="rotate(180,130,418)"/><circle cx="130" cy="442" r="6" transform="rotate(0,130,442)"/><rect x="136" y="40" width="12" height="12" transform="rotate(0,142,46)"/><path d="M 136 64v 12h 6a 6 6, 0, 0, 0, 0 -12" transform="rotate(-90,142,70)"/><path d="M 136 76v 12h 12v -6a 6 6, 0, 0, 0, -6 -6" transform="rotate(90,142,82)"/><path d="M 136 112v 12h 12v -6a 6 6, 0, 0, 0, -6 -6" transform="rotate(-90,142,118)"/><rect x="136" y="124" width="12" height="12" transform="rotate(0,142,130)"/><rect x="136" y="136" width="12" height="12" transform="rotate(0,142,142)"/><circle cx="142" cy="166" r="6" transform="rotate(0,142,166)"/><path d="M 136 184v 12h 12v -6a 6 6, 0, 0, 0, -6 -6" transform="rotate(-90,142,190)"/><rect x="136" y="196" width="12" height="12" transform="rotate(0,142,202)"/><rect x="136" y="208" width="12" height="12" transform="rotate(0,142,214)"/><path d="M 136 232v 12h 12v -6a 6 6, 0, 0, 0, -6 -6" transform="rotate(0,142,238)"/><rect x="136" y="244" width="12" height="12" transform="rotate(0,142,250)"/><rect x="136" y="256" width="12" height="12" transform="rotate(0,142,262)"/><rect x="136" y="268" width="12" height="12" transform="rotate(0,142,274)"/><path d="M 136 280v 12h 12v -6a 6 6, 0, 0, 0, -6 -6" transform="rotate(90,142,286)"/><path d="M 136 304v 12h 12v -6a 6 6, 0, 0, 0, -6 -6" transform="rotate(-90,142,310)"/><rect x="136" y="316" width="12" height="12" transform="rotate(0,142,322)"/><rect x="136" y="328" width="12" height="12" transform="rotate(0,142,334)"/><path d="M 136 340v 12h 6a 6 6, 0, 0, 0, 0 -12" transform="rotate(90,142,346)"/><rect x="136" y="412" width="12" height="12" transform="rotate(0,142,418)"/><path d="M 136 424v 12h 6a 6 6, 0, 0, 0, 0 -12" transform="rotate(90,142,430)"/><circle cx="142" cy="454" r="6" transform="rotate(0,142,454)"/><rect x="148" y="40" width="12" height="12" transform="rotate(0,154,46)"/><path d="M 148 52v 12h 12v -6a 6 6, 0, 0, 0, -6 -6" transform="rotate(180,154,58)"/><path d="M 148 88v 12h 12v -6a 6 6, 0, 0, 0, -6 -6" transform="rotate(-90,154,94)"/><rect x="148" y="100" width="12" height="12" transform="rotate(0,154,106)"/><rect x="148" y="112" width="12" height="12" transform="rotate(0,154,118)"/><rect x="148" y="136" width="12" height="12" transform="rotate(0,154,142)"/><rect x="148" y="184" width="12" height="12" transform="rotate(0,154,190)"/><path d="M 148 208v 12h 12v -6a 6 6, 0, 0, 0, -6 -6" transform="rotate(0,154,214)"/><path d="M 148 220v 12h 6a 6 6, 0, 0, 0, 0 -12" transform="rotate(90,154,226)"/><rect x="148" y="256" width="12" height="12" transform="rotate(0,154,262)"/><path d="M 148 268v 12h 12v -6a 6 6, 0, 0, 0, -6 -6" transform="rotate(90,154,274)"/><path d="M 148 292v 12h 12v -6a 6 6, 0, 0, 0, -6 -6" transform="rotate(-90,154,298)"/><rect x="148" y="304" width="12" height="12" transform="rotate(0,154,310)"/><rect x="148" y="316" width="12" height="12" transform="rotate(0,154,322)"/><path d="M 148 328v 12h 12v -6a 6 6, 0, 0, 0, -6 -6" transform="rotate(90,154,334)"/><circle cx="154" cy="358" r="6" transform="rotate(0,154,358)"/><path d="M 148 376v 12h 6a 6 6, 0, 0, 0, 0 -12" transform="rotate(180,154,382)"/><path d="M 148 400v 12h 6a 6 6, 0, 0, 0, 0 -12" transform="rotate(-90,154,406)"/><path d="M 148 412v 12h 12v -6a 6 6, 0, 0, 0, -6 -6" transform="rotate(90,154,418)"/><path d="M 160 28v 12h 6a 6 6, 0, 0, 0, 0 -12" transform="rotate(-90,166,34)"/><rect x="160" y="40" width="12" height="12" transform="rotate(0,166,46)"/><path d="M 160 52v 12h 12v -6a 6 6, 0, 0, 0, -6 -6" transform="rotate(90,166,58)"/><rect x="160" y="88" width="12" height="12" transform="rotate(0,166,94)"/><rect x="160" y="112" width="12" height="12" transform="rotate(0,166,118)"/><path d="M 160 136v 12h 6a 6 6, 0, 0, 0, 0 -12" transform="rotate(0,166,142)"/><path d="M 160 172v 12h 6a 6 6, 0, 0, 0, 0 -12" transform="rotate(-90,166,178)"/><rect x="160" y="184" width="12" height="12" transform="rotate(0,166,190)"/><path d="M 160 196v 12h 6a 6 6, 0, 0, 0, 0 -12" transform="rotate(90,166,202)"/><path d="M 160 244v 12h 12v -6a 6 6, 0, 0, 0, -6 -6" transform="rotate(-90,166,250)"/><rect x="160" y="256" width="12" height="12" transform="rotate(0,166,262)"/><path d="M 160 280v 12h 12v -6a 6 6, 0, 0, 0, -6 -6" transform="rotate(-90,166,286)"/><rect x="160" y="292" width="12" height="12" transform="rotate(0,166,298)"/><circle cx="166" cy="346" r="6" transform="rotate(0,166,346)"/><path d="M 160 376v 12h 6a 6 6, 0, 0, 0, 0 -12" transform="rotate(0,166,382)"/><path d="M 160 436v 12h 6a 6 6, 0, 0, 0, 0 -12" transform="rotate(180,166,442)"/><path d="M 160 460v 12h 6a 6 6, 0, 0, 0, 0 -12" transform="rotate(180,166,466)"/><circle cx="178" cy="70" r="6" transform="rotate(0,178,70)"/><rect x="172" y="88" width="12" height="12" transform="rotate(0,178,94)"/><rect x="172" y="100" width="12" height="12" transform="rotate(0,178,106)"/><rect x="172" y="112" width="12" height="12" transform="rotate(0,178,118)"/><path d="M 172 208v 12h 6a 6 6, 0, 0, 0, 0 -12" transform="rotate(180,178,214)"/><rect x="172" y="244" width="12" height="12" transform="rotate(0,178,250)"/><rect x="172" y="256" width="12" height="12" transform="rotate(0,178,262)"/><rect x="172" y="268" width="12" height="12" transform="rotate(0,178,274)"/><rect x="172" y="280" width="12" height="12" transform="rotate(0,178,286)"/><path d="M 172 292v 12h 12v -6a 6 6, 0, 0, 0, -6 -6" transform="rotate(90,178,298)"/><circle cx="178" cy="322" r="6" transform="rotate(0,178,322)"/><path d="M 172 352v 12h 6a 6 6, 0, 0, 0, 0 -12" transform="rotate(180,178,358)"/><path d="M 172 388v 12h 6a 6 6, 0, 0, 0, 0 -12" transform="rotate(-90,178,394)"/><path d="M 172 400v 12h 12v -6a 6 6, 0, 0, 0, -6 -6" transform="rotate(180,178,406)"/><path d="M 172 424v 12h 6a 6 6, 0, 0, 0, 0 -12" transform="rotate(-90,178,430)"/><rect x="172" y="436" width="12" height="12" transform="rotate(0,178,442)"/><path d="M 172 460v 12h 6a 6 6, 0, 0, 0, 0 -12" transform="rotate(0,178,466)"/><path d="M 184 28v 12h 12v -6a 6 6, 0, 0, 0, -6 -6" transform="rotate(-90,190,34)"/><rect x="184" y="40" width="12" height="12" transform="rotate(0,190,46)"/><path d="M 184 52v 12h 12v -6a 6 6, 0, 0, 0, -6 -6" transform="rotate(180,190,58)"/><path d="M 184 88v 12h 6a 6 6, 0, 0, 0, 0 -12" transform="rotate(0,190,94)"/><path d="M 184 112v 12h 6a 6 6, 0, 0, 0, 0 -12" transform="rotate(0,190,118)"/><circle cx="190" cy="142" r="6" transform="rotate(0,190,142)"/><rect x="184" y="208" width="12" height="12" transform="rotate(0,190,214)"/><rect x="184" y="220" width="12" height="12" transform="rotate(0,190,226)"/><rect x="184" y="232" width="12" height="12" transform="rotate(0,190,238)"/><rect x="184" y="244" width="12" height="12" transform="rotate(0,190,250)"/><path d="M 184 256v 12h 12v -6a 6 6, 0, 0, 0, -6 -6" transform="rotate(90,190,262)"/><path d="M 184 304v 12h 6a 6 6, 0, 0, 0, 0 -12" transform="rotate(180,190,310)"/><path d="M 184 328v 12h 12v -6a 6 6, 0, 0, 0, -6 -6" transform="rotate(-90,190,334)"/><rect x="184" y="340" width="12" height="12" transform="rotate(0,190,346)"/><rect x="184" y="352" width="12" height="12" transform="rotate(0,190,358)"/><rect x="184" y="364" width="12" height="12" transform="rotate(0,190,370)"/><path d="M 184 376v 12h 12v -6a 6 6, 0, 0, 0, -6 -6" transform="rotate(180,190,382)"/><rect x="184" y="400" width="12" height="12" transform="rotate(0,190,406)"/><path d="M 184 412v 12h 6a 6 6, 0, 0, 0, 0 -12" transform="rotate(90,190,418)"/><rect x="184" y="436" width="12" height="12" transform="rotate(0,190,442)"/><path d="M 184 448v 12h 12v -6a 6 6, 0, 0, 0, -6 -6" transform="rotate(180,190,454)"/><rect x="196" y="28" width="12" height="12" transform="rotate(0,202,34)"/><rect x="196" y="52" width="12" height="12" transform="rotate(0,202,58)"/><path d="M 196 64v 12h 12v -6a 6 6, 0, 0, 0, -6 -6" transform="rotate(180,202,70)"/><circle cx="202" cy="106" r="6" transform="rotate(0,202,106)"/><path d="M 196 124v 12h 6a 6 6, 0, 0, 0, 0 -12" transform="rotate(180,202,130)"/><path d="M 196 160v 12h 6a 6 6, 0, 0, 0, 0 -12" transform="rotate(-90,202,166)"/><path d="M 196 172v 12h 6a 6 6, 0, 0, 0, 0 -12" transform="rotate(90,202,178)"/><path d="M 196 208v 12h 12v -6a 6 6, 0, 0, 0, -6 -6" transform="rotate(0,202,214)"/><rect x="196" y="220" width="12" height="12" transform="rotate(0,202,226)"/><rect x="196" y="232" width="12" height="12" transform="rotate(0,202,238)"/><path d="M 196 244v 12h 12v -6a 6 6, 0, 0, 0, -6 -6" transform="rotate(90,202,250)"/><path d="M 196 280v 12h 12v -6a 6 6, 0, 0, 0, -6 -6" transform="rotate(-90,202,286)"/><rect x="196" y="292" width="12" height="12" transform="rotate(0,202,298)"/><rect x="196" y="304" width="12" height="12" transform="rotate(0,202,310)"/><rect x="196" y="316" width="12" height="12" transform="rotate(0,202,322)"/><path d="M 196 328v 12h 12v -6a 6 6, 0, 0, 0, -6 -6" transform="rotate(90,202,334)"/><rect x="196" y="352" width="12" height="12" transform="rotate(0,202,358)"/><rect x="196" y="364" width="12" height="12" transform="rotate(0,202,370)"/><path d="M 196 376v 12h 12v -6a 6 6, 0, 0, 0, -6 -6" transform="rotate(90,202,382)"/><path d="M 196 400v 12h 6a 6 6, 0, 0, 0, 0 -12" transform="rotate(0,202,406)"/><path d="M 196 424v 12h 6a 6 6, 0, 0, 0, 0 -12" transform="rotate(-90,202,430)"/><rect x="196" y="436" width="12" height="12" transform="rotate(0,202,442)"/><path d="M 196 448v 12h 12v -6a 6 6, 0, 0, 0, -6 -6" transform="rotate(90,202,454)"/><rect x="208" y="28" width="12" height="12" transform="rotate(0,214,34)"/><path d="M 208 52v 12h 12v -6a 6 6, 0, 0, 0, -6 -6" transform="rotate(0,214,58)"/><rect x="208" y="64" width="12" height="12" transform="rotate(0,214,70)"/><rect x="208" y="76" width="12" height="12" transform="rotate(0,214,82)"/><path d="M 208 88v 12h 6a 6 6, 0, 0, 0, 0 -12" transform="rotate(90,214,94)"/><path d="M 208 124v 12h 6a 6 6, 0, 0, 0, 0 -12" transform="rotate(0,214,130)"/><circle cx="214" cy="202" r="6" transform="rotate(0,214,202)"/><path d="M 208 268v 12h 6a 6 6, 0, 0, 0, 0 -12" transform="rotate(-90,214,274)"/><path d="M 208 280v 12h 12v -6a 6 6, 0, 0, 0, -6 -6" transform="rotate(90,214,286)"/><path d="M 208 304v 12h 6a 6 6, 0, 0, 0, 0 -12" transform="rotate(0,214,310)"/><path d="M 208 340v 12h 12v -6a 6 6, 0, 0, 0, -6 -6" transform="rotate(-90,214,346)"/><rect x="208" y="352" width="12" height="12" transform="rotate(0,214,358)"/><path d="M 208 388v 12h 6a 6 6, 0, 0, 0, 0 -12" transform="rotate(180,214,394)"/><rect x="208" y="436" width="12" height="12" transform="rotate(0,214,442)"/><path d="M 220 28v 12h 6a 6 6, 0, 0, 0, 0 -12" transform="rotate(0,226,34)"/><path d="M 220 64v 12h 6a 6 6, 0, 0, 0, 0 -12" transform="rotate(0,226,70)"/><path d="M 220 100v 12h 6a 6 6, 0, 0, 0, 0 -12" transform="rotate(-90,226,106)"/><path d="M 220 112v 12h 12v -6a 6 6, 0, 0, 0, -6 -6" transform="rotate(180,226,118)"/><path d="M 220 148v 12h 6a 6 6, 0, 0, 0, 0 -12" transform="rotate(180,226,154)"/><path d="M 220 220v 12h 12v -6a 6 6, 0, 0, 0, -6 -6" transform="rotate(-90,226,226)"/><path d="M 220 232v 12h 12v -6a 6 6, 0, 0, 0, -6 -6" transform="rotate(180,226,238)"/><path d="M 220 256v 12h 6a 6 6, 0, 0, 0, 0 -12" transform="rotate(180,226,262)"/><rect x="220" y="340" width="12" height="12" transform="rotate(0,226,346)"/><rect x="220" y="352" width="12" height="12" transform="rotate(0,226,358)"/><path d="M 220 364v 12h 6a 6 6, 0, 0, 0, 0 -12" transform="rotate(90,226,370)"/><path d="M 220 388v 12h 6a 6 6, 0, 0, 0, 0 -12" transform="rotate(0,226,394)"/><path d="M 220 424v 12h 6a 6 6, 0, 0, 0, 0 -12" transform="rotate(-90,226,430)"/><path d="M 220 436v 12h 12v -6a 6 6, 0, 0, 0, -6 -6" transform="rotate(90,226,442)"/><circle cx="226" cy="466" r="6" transform="rotate(0,226,466)"/><circle cx="238" cy="46" r="6" transform="rotate(0,238,46)"/><circle cx="238" cy="82" r="6" transform="rotate(0,238,82)"/><path d="M 232 112v 12h 12v -6a 6 6, 0, 0, 0, -6 -6" transform="rotate(0,238,118)"/><rect x="232" y="124" width="12" height="12" transform="rotate(0,238,130)"/><rect x="232" y="136" width="12" height="12" transform="rotate(0,238,142)"/><rect x="232" y="148" width="12" height="12" transform="rotate(0,238,154)"/><path d="M 232 208v 12h 6a 6 6, 0, 0, 0, 0 -12" transform="rotate(-90,238,214)"/><rect x="232" y="220" width="12" height="12" transform="rotate(0,238,226)"/><rect x="232" y="232" width="12" height="12" transform="rotate(0,238,238)"/><rect x="232" y="244" width="12" height="12" transform="rotate(0,238,250)"/><rect x="232" y="256" width="12" height="12" transform="rotate(0,238,262)"/><rect x="232" y="268" width="12" height="12" transform="rotate(0,238,274)"/><rect x="232" y="280" width="12" height="12" transform="rotate(0,238,286)"/><path d="M 232 292v 12h 6a 6 6, 0, 0, 0, 0 -12" transform="rotate(90,238,298)"/><path d="M 232 316v 12h 6a 6 6, 0, 0, 0, 0 -12" transform="rotate(180,238,322)"/><rect x="232" y="340" width="12" height="12" transform="rotate(0,238,346)"/><rect x="232" y="352" width="12" height="12" transform="rotate(0,238,358)"/><circle cx="238" cy="382" r="6" transform="rotate(0,238,382)"/><path d="M 232 400v 12h 6a 6 6, 0, 0, 0, 0 -12" transform="rotate(-90,238,406)"/><path d="M 232 412v 12h 6a 6 6, 0, 0, 0, 0 -12" transform="rotate(90,238,418)"/><circle cx="250" cy="34" r="6" transform="rotate(0,250,34)"/><path d="M 244 52v 12h 6a 6 6, 0, 0, 0, 0 -12" transform="rotate(-90,250,58)"/><path d="M 244 64v 12h 12v -6a 6 6, 0, 0, 0, -6 -6" transform="rotate(180,250,70)"/><circle cx="250" cy="106" r="6" transform="rotate(0,250,106)"/><path d="M 244 124v 12h 12v -6a 6 6, 0, 0, 0, -6 -6" transform="rotate(0,250,130)"/><rect x="244" y="136" width="12" height="12" transform="rotate(0,250,142)"/><rect x="244" y="148" width="12" height="12" transform="rotate(0,250,154)"/><rect x="244" y="160" width="12" height="12" transform="rotate(0,250,166)"/><rect x="244" y="172" width="12" height="12" transform="rotate(0,250,178)"/><path d="M 244 184v 12h 6a 6 6, 0, 0, 0, 0 -12" transform="rotate(90,250,190)"/><path d="M 244 220v 12h 6a 6 6, 0, 0, 0, 0 -12" transform="rotate(0,250,226)"/><path d="M 244 244v 12h 12v -6a 6 6, 0, 0, 0, -6 -6" transform="rotate(0,250,250)"/><rect x="244" y="256" width="12" height="12" transform="rotate(0,250,262)"/><rect x="244" y="280" width="12" height="12" transform="rotate(0,250,286)"/><path d="M 244 304v 12h 12v -6a 6 6, 0, 0, 0, -6 -6" transform="rotate(-90,250,310)"/><rect x="244" y="316" width="12" height="12" transform="rotate(0,250,322)"/><rect x="244" y="328" width="12" height="12" transform="rotate(0,250,334)"/><rect x="244" y="340" width="12" height="12" transform="rotate(0,250,346)"/><path d="M 244 352v 12h 12v -6a 6 6, 0, 0, 0, -6 -6" transform="rotate(90,250,358)"/><path d="M 244 388v 12h 6a 6 6, 0, 0, 0, 0 -12" transform="rotate(180,250,394)"/><path d="M 244 424v 12h 12v -6a 6 6, 0, 0, 0, -6 -6" transform="rotate(-90,250,430)"/><path d="M 244 436v 12h 12v -6a 6 6, 0, 0, 0, -6 -6" transform="rotate(180,250,442)"/><path d="M 256 64v 12h 12v -6a 6 6, 0, 0, 0, -6 -6" transform="rotate(0,262,70)"/><rect x="256" y="76" width="12" height="12" transform="rotate(0,262,82)"/><path d="M 256 88v 12h 6a 6 6, 0, 0, 0, 0 -12" transform="rotate(90,262,94)"/><circle cx="262" cy="118" r="6" transform="rotate(0,262,118)"/><rect x="256" y="148" width="12" height="12" transform="rotate(0,262,154)"/><path d="M 256 196v 12h 12v -6a 6 6, 0, 0, 0, -6 -6" transform="rotate(-90,262,202)"/><path d="M 256 208v 12h 12v -6a 6 6, 0, 0, 0, -6 -6" transform="rotate(180,262,214)"/><rect x="256" y="256" width="12" height="12" transform="rotate(0,262,262)"/><rect x="256" y="280" width="12" height="12" transform="rotate(0,262,286)"/><path d="M 256 304v 12h 6a 6 6, 0, 0, 0, 0 -12" transform="rotate(0,262,310)"/><path d="M 256 364v 12h 6a 6 6, 0, 0, 0, 0 -12" transform="rotate(-90,262,370)"/><rect x="256" y="376" width="12" height="12" transform="rotate(0,262,382)"/><rect x="256" y="388" width="12" height="12" transform="rotate(0,262,394)"/><rect x="256" y="424" width="12" height="12" transform="rotate(0,262,430)"/><rect x="256" y="436" width="12" height="12" transform="rotate(0,262,442)"/><path d="M 256 448v 12h 12v -6a 6 6, 0, 0, 0, -6 -6" transform="rotate(180,262,454)"/><path d="M 268 28v 12h 6a 6 6, 0, 0, 0, 0 -12" transform="rotate(180,274,34)"/><circle cx="274" cy="58" r="6" transform="rotate(0,274,58)"/><circle cx="274" cy="106" r="6" transform="rotate(0,274,106)"/><circle cx="274" cy="130" r="6" transform="rotate(0,274,130)"/><path d="M 268 148v 12h 12v -6a 6 6, 0, 0, 0, -6 -6" transform="rotate(0,274,154)"/><path d="M 268 160v 12h 6a 6 6, 0, 0, 0, 0 -12" transform="rotate(90,274,166)"/><path d="M 268 184v 12h 6a 6 6, 0, 0, 0, 0 -12" transform="rotate(-90,274,190)"/><rect x="268" y="196" width="12" height="12" transform="rotate(0,274,202)"/><rect x="268" y="208" width="12" height="12" transform="rotate(0,274,214)"/><path d="M 268 220v 12h 6a 6 6, 0, 0, 0, 0 -12" transform="rotate(90,274,226)"/><path d="M 268 256v 12h 12v -6a 6 6, 0, 0, 0, -6 -6" transform="rotate(0,274,262)"/><rect x="268" y="268" width="12" height="12" transform="rotate(0,274,274)"/><path d="M 268 280v 12h 12v -6a 6 6, 0, 0, 0, -6 -6" transform="rotate(90,274,286)"/><circle cx="274" cy="322" r="6" transform="rotate(0,274,322)"/><path d="M 268 376v 12h 12v -6a 6 6, 0, 0, 0, -6 -6" transform="rotate(0,274,382)"/><path d="M 268 388v 12h 12v -6a 6 6, 0, 0, 0, -6 -6" transform="rotate(90,274,394)"/><rect x="268" y="424" width="12" height="12" transform="rotate(0,274,430)"/><rect x="268" y="436" width="12" height="12" transform="rotate(0,274,442)"/><rect x="268" y="448" width="12" height="12" transform="rotate(0,274,454)"/><path d="M 268 460v 12h 6a 6 6, 0, 0, 0, 0 -12" transform="rotate(90,274,466)"/><rect x="280" y="28" width="12" height="12" transform="rotate(0,286,34)"/><path d="M 280 64v 12h 6a 6 6, 0, 0, 0, 0 -12" transform="rotate(-90,286,70)"/><rect x="280" y="76" width="12" height="12" transform="rotate(0,286,82)"/><path d="M 280 88v 12h 12v -6a 6 6, 0, 0, 0, -6 -6" transform="rotate(180,286,94)"/><path d="M 280 232v 12h 6a 6 6, 0, 0, 0, 0 -12" transform="rotate(180,286,238)"/><path d="M 280 292v 12h 6a 6 6, 0, 0, 0, 0 -12" transform="rotate(-90,286,298)"/><path d="M 280 304v 12h 12v -6a 6 6, 0, 0, 0, -6 -6" transform="rotate(180,286,310)"/><path d="M 280 328v 12h 6a 6 6, 0, 0, 0, 0 -12" transform="rotate(-90,286,334)"/><rect x="280" y="340" width="12" height="12" transform="rotate(0,286,346)"/><path d="M 280 352v 12h 12v -6a 6 6, 0, 0, 0, -6 -6" transform="rotate(180,286,358)"/><path d="M 280 412v 12h 6a 6 6, 0, 0, 0, 0 -12" transform="rotate(-90,286,418)"/><rect x="280" y="424" width="12" height="12" transform="rotate(0,286,430)"/><path d="M 280 448v 12h 6a 6 6, 0, 0, 0, 0 -12" transform="rotate(0,286,454)"/><path d="M 292 28v 12h 12v -6a 6 6, 0, 0, 0, -6 -6" transform="rotate(0,298,34)"/><rect x="292" y="40" width="12" height="12" transform="rotate(0,298,46)"/><path d="M 292 52v 12h 12v -6a 6 6, 0, 0, 0, -6 -6" transform="rotate(180,298,58)"/><rect x="292" y="88" width="12" height="12" transform="rotate(0,298,94)"/><rect x="292" y="100" width="12" height="12" transform="rotate(0,298,106)"/><path d="M 292 112v 12h 6a 6 6, 0, 0, 0, 0 -12" transform="rotate(90,298,118)"/><circle cx="298" cy="142" r="6" transform="rotate(0,298,142)"/><path d="M 292 160v 12h 12v -6a 6 6, 0, 0, 0, -6 -6" transform="rotate(-90,298,166)"/><rect x="292" y="172" width="12" height="12" transform="rotate(0,298,178)"/><rect x="292" y="184" width="12" height="12" transform="rotate(0,298,190)"/><rect x="292" y="196" width="12" height="12" transform="rotate(0,298,202)"/><rect x="292" y="208" width="12" height="12" transform="rotate(0,298,214)"/><rect x="292" y="220" width="12" height="12" transform="rotate(0,298,226)"/><rect x="292" y="232" width="12" height="12" transform="rotate(0,298,238)"/><path d="M 292 244v 12h 6a 6 6, 0, 0, 0, 0 -12" transform="rotate(90,298,250)"/><path d="M 292 280v 12h 6a 6 6, 0, 0, 0, 0 -12" transform="rotate(180,298,286)"/><rect x="292" y="304" width="12" height="12" transform="rotate(0,298,310)"/><path d="M 292 316v 12h 12v -6a 6 6, 0, 0, 0, -6 -6" transform="rotate(180,298,322)"/><path d="M 292 352v 12h 6a 6 6, 0, 0, 0, 0 -12" transform="rotate(0,298,358)"/><path d="M 292 388v 12h 6a 6 6, 0, 0, 0, 0 -12" transform="rotate(180,298,394)"/><rect x="292" y="424" width="12" height="12" transform="rotate(0,298,430)"/><path d="M 292 436v 12h 12v -6a 6 6, 0, 0, 0, -6 -6" transform="rotate(180,298,442)"/><rect x="304" y="52" width="12" height="12" transform="rotate(0,310,58)"/><path d="M 304 64v 12h 6a 6 6, 0, 0, 0, 0 -12" transform="rotate(90,310,70)"/><rect x="304" y="88" width="12" height="12" transform="rotate(0,310,94)"/><path d="M 304 124v 12h 6a 6 6, 0, 0, 0, 0 -12" transform="rotate(180,310,130)"/><path d="M 304 148v 12h 6a 6 6, 0, 0, 0, 0 -12" transform="rotate(-90,310,154)"/><path d="M 304 160v 12h 12v -6a 6 6, 0, 0, 0, -6 -6" transform="rotate(90,310,166)"/><path d="M 304 184v 12h 6a 6 6, 0, 0, 0, 0 -12" transform="rotate(0,310,190)"/><path d="M 304 208v 12h 6a 6 6, 0, 0, 0, 0 -12" transform="rotate(0,310,214)"/><circle cx="310" cy="262" r="6" transform="rotate(0,310,262)"/><rect x="304" y="280" width="12" height="12" transform="rotate(0,310,286)"/><rect x="304" y="304" width="12" height="12" transform="rotate(0,310,310)"/><path d="M 304 316v 12h 12v -6a 6 6, 0, 0, 0, -6 -6" transform="rotate(90,310,322)"/><path d="M 304 340v 12h 6a 6 6, 0, 0, 0, 0 -12" transform="rotate(180,310,346)"/><rect x="304" y="388" width="12" height="12" transform="rotate(0,310,394)"/><path d="M 304 400v 12h 12v -6a 6 6, 0, 0, 0, -6 -6" transform="rotate(180,310,406)"/><path d="M 304 424v 12h 12v -6a 6 6, 0, 0, 0, -6 -6" transform="rotate(0,310,430)"/><rect x="304" y="436" width="12" height="12" transform="rotate(0,310,442)"/><path d="M 316 40v 12h 12v -6a 6 6, 0, 0, 0, -6 -6" transform="rotate(-90,322,46)"/><rect x="316" y="52" width="12" height="12" transform="rotate(0,322,58)"/><path d="M 316 76v 12h 6a 6 6, 0, 0, 0, 0 -12" transform="rotate(-90,322,82)"/><rect x="316" y="88" width="12" height="12" transform="rotate(0,322,94)"/><rect x="316" y="100" width="12" height="12" transform="rotate(0,322,106)"/><rect x="316" y="112" width="12" height="12" transform="rotate(0,322,118)"/><rect x="316" y="124" width="12" height="12" transform="rotate(0,322,130)"/><path d="M 316 136v 12h 6a 6 6, 0, 0, 0, 0 -12" transform="rotate(90,322,142)"/><circle cx="322" cy="178" r="6" transform="rotate(0,322,178)"/><path d="M 316 220v 12h 6a 6 6, 0, 0, 0, 0 -12" transform="rotate(180,322,226)"/><path d="M 316 244v 12h 6a 6 6, 0, 0, 0, 0 -12" transform="rotate(180,322,250)"/><path d="M 316 268v 12h 6a 6 6, 0, 0, 0, 0 -12" transform="rotate(-90,322,274)"/><rect x="316" y="280" width="12" height="12" transform="rotate(0,322,286)"/><rect x="316" y="292" width="12" height="12" transform="rotate(0,322,298)"/><rect x="316" y="304" width="12" height="12" transform="rotate(0,322,310)"/><path d="M 316 328v 12h 12v -6a 6 6, 0, 0, 0, -6 -6" transform="rotate(-90,322,334)"/><rect x="316" y="340" width="12" height="12" transform="rotate(0,322,346)"/><path d="M 316 352v 12h 12v -6a 6 6, 0, 0, 0, -6 -6" transform="rotate(180,322,358)"/><path d="M 316 376v 12h 6a 6 6, 0, 0, 0, 0 -12" transform="rotate(-90,322,382)"/><rect x="316" y="388" width="12" height="12" transform="rotate(0,322,394)"/><path d="M 316 400v 12h 12v -6a 6 6, 0, 0, 0, -6 -6" transform="rotate(90,322,406)"/><path d="M 316 436v 12h 6a 6 6, 0, 0, 0, 0 -12" transform="rotate(0,322,442)"/><circle cx="322" cy="466" r="6" transform="rotate(0,322,466)"/><path d="M 328 28v 12h 6a 6 6, 0, 0, 0, 0 -12" transform="rotate(-90,334,34)"/><rect x="328" y="40" width="12" height="12" transform="rotate(0,334,46)"/><rect x="328" y="52" width="12" height="12" transform="rotate(0,334,58)"/><path d="M 328 64v 12h 12v -6a 6 6, 0, 0, 0, -6 -6" transform="rotate(180,334,70)"/><path d="M 328 124v 12h 6a 6 6, 0, 0, 0, 0 -12" transform="rotate(0,334,130)"/><path d="M 328 148v 12h 6a 6 6, 0, 0, 0, 0 -12" transform="rotate(180,334,154)"/><path d="M 328 184v 12h 12v -6a 6 6, 0, 0, 0, -6 -6" transform="rotate(-90,334,190)"/><path d="M 328 196v 12h 6a 6 6, 0, 0, 0, 0 -12" transform="rotate(90,334,202)"/><path d="M 328 220v 12h 12v -6a 6 6, 0, 0, 0, -6 -6" transform="rotate(0,334,226)"/><rect x="328" y="232" width="12" height="12" transform="rotate(0,334,238)"/><rect x="328" y="244" width="12" height="12" transform="rotate(0,334,250)"/><path d="M 328 256v 12h 6a 6 6, 0, 0, 0, 0 -12" transform="rotate(90,334,262)"/><path d="M 328 280v 12h 6a 6 6, 0, 0, 0, 0 -12" transform="rotate(0,334,286)"/><rect x="328" y="304" width="12" height="12" transform="rotate(0,334,310)"/><path d="M 328 328v 12h 6a 6 6, 0, 0, 0, 0 -12" transform="rotate(0,334,334)"/><rect x="328" y="352" width="12" height="12" transform="rotate(0,334,358)"/><path d="M 328 412v 12h 6a 6 6, 0, 0, 0, 0 -12" transform="rotate(180,334,418)"/><circle cx="334" cy="454" r="6" transform="rotate(0,334,454)"/><path d="M 340 52v 12h 12v -6a 6 6, 0, 0, 0, -6 -6" transform="rotate(0,346,58)"/><path d="M 340 64v 12h 12v -6a 6 6, 0, 0, 0, -6 -6" transform="rotate(90,346,70)"/><path d="M 340 88v 12h 12v -6a 6 6, 0, 0, 0, -6 -6" transform="rotate(-90,346,94)"/><rect x="340" y="100" width="12" height="12" transform="rotate(0,346,106)"/><path d="M 340 112v 12h 6a 6 6, 0, 0, 0, 0 -12" transform="rotate(90,346,118)"/><path d="M 340 148v 12h 12v -6a 6 6, 0, 0, 0, -6 -6" transform="rotate(0,346,154)"/><rect x="340" y="160" width="12" height="12" transform="rotate(0,346,166)"/><rect x="340" y="172" width="12" height="12" transform="rotate(0,346,178)"/><path d="M 340 184v 12h 12v -6a 6 6, 0, 0, 0, -6 -6" transform="rotate(90,346,190)"/><rect x="340" y="232" width="12" height="12" transform="rotate(0,346,238)"/><rect x="340" y="304" width="12" height="12" transform="rotate(0,346,310)"/><path d="M 340 316v 12h 12v -6a 6 6, 0, 0, 0, -6 -6" transform="rotate(180,346,322)"/><rect x="340" y="352" width="12" height="12" transform="rotate(0,346,358)"/><path d="M 340 376v 12h 12v -6a 6 6, 0, 0, 0, -6 -6" transform="rotate(-90,346,382)"/><path d="M 340 388v 12h 12v -6a 6 6, 0, 0, 0, -6 -6" transform="rotate(180,346,394)"/><rect x="340" y="412" width="12" height="12" transform="rotate(0,346,418)"/><path d="M 352 76v 12h 6a 6 6, 0, 0, 0, 0 -12" transform="rotate(-90,358,82)"/><path d="M 352 88v 12h 12v -6a 6 6, 0, 0, 0, -6 -6" transform="rotate(90,358,94)"/><path d="M 352 160v 12h 6a 6 6, 0, 0, 0, 0 -12" transform="rotate(0,358,166)"/><path d="M 352 232v 12h 12v -6a 6 6, 0, 0, 0, -6 -6" transform="rotate(0,358,238)"/><rect x="352" y="244" width="12" height="12" transform="rotate(0,358,250)"/><path d="M 352 256v 12h 12v -6a 6 6, 0, 0, 0, -6 -6" transform="rotate(180,358,262)"/><path d="M 352 280v 12h 6a 6 6, 0, 0, 0, 0 -12" transform="rotate(180,358,286)"/><path d="M 352 304v 12h 12v -6a 6 6, 0, 0, 0, -6 -6" transform="rotate(0,358,310)"/><rect x="352" y="316" width="12" height="12" transform="rotate(0,358,322)"/><path d="M 352 340v 12h 6a 6 6, 0, 0, 0, 0 -12" transform="rotate(-90,358,346)"/><rect x="352" y="352" width="12" height="12" transform="rotate(0,358,358)"/><rect x="352" y="376" width="12" height="12" transform="rotate(0,358,382)"/><rect x="352" y="388" width="12" height="12" transform="rotate(0,358,394)"/><rect x="352" y="400" width="12" height="12" transform="rotate(0,358,406)"/><rect x="352" y="412" width="12" height="12" transform="rotate(0,358,418)"/><rect x="352" y="424" width="12" height="12" transform="rotate(0,358,430)"/><path d="M 352 436v 12h 12v -6a 6 6, 0, 0, 0, -6 -6" transform="rotate(180,358,442)"/><path d="M 364 28v 12h 6a 6 6, 0, 0, 0, 0 -12" transform="rotate(-90,370,34)"/><path d="M 364 40v 12h 6a 6 6, 0, 0, 0, 0 -12" transform="rotate(90,370,46)"/><circle cx="370" cy="106" r="6" transform="rotate(0,370,106)"/><path d="M 364 148v 12h 6a 6 6, 0, 0, 0, 0 -12" transform="rotate(180,370,154)"/><path d="M 364 184v 12h 12v -6a 6 6, 0, 0, 0, -6 -6" transform="rotate(-90,370,190)"/><path d="M 364 196v 12h 6a 6 6, 0, 0, 0, 0 -12" transform="rotate(90,370,202)"/><rect x="364" y="256" width="12" height="12" transform="rotate(0,370,262)"/><rect x="364" y="268" width="12" height="12" transform="rotate(0,370,274)"/><rect x="364" y="280" width="12" height="12" transform="rotate(0,370,286)"/><path d="M 364 292v 12h 6a 6 6, 0, 0, 0, 0 -12" transform="rotate(90,370,298)"/><path d="M 364 316v 12h 6a 6 6, 0, 0, 0, 0 -12" transform="rotate(0,370,322)"/><path d="M 364 352v 12h 12v -6a 6 6, 0, 0, 0, -6 -6" transform="rotate(0,370,358)"/><rect x="364" y="364" width="12" height="12" transform="rotate(0,370,370)"/><rect x="364" y="376" width="12" height="12" transform="rotate(0,370,382)"/><rect x="364" y="388" width="12" height="12" transform="rotate(0,370,394)"/><rect x="364" y="400" width="12" height="12" transform="rotate(0,370,406)"/><rect x="364" y="412" width="12" height="12" transform="rotate(0,370,418)"/><path d="M 364 436v 12h 6a 6 6, 0, 0, 0, 0 -12" transform="rotate(0,370,442)"/><circle cx="370" cy="466" r="6" transform="rotate(0,370,466)"/><circle cx="382" cy="130" r="6" transform="rotate(0,382,130)"/><rect x="376" y="148" width="12" height="12" transform="rotate(0,382,154)"/><rect x="376" y="160" width="12" height="12" transform="rotate(0,382,166)"/><rect x="376" y="172" width="12" height="12" transform="rotate(0,382,178)"/><rect x="376" y="184" width="12" height="12" transform="rotate(0,382,190)"/><path d="M 376 220v 12h 6a 6 6, 0, 0, 0, 0 -12" transform="rotate(-90,382,226)"/><path d="M 376 232v 12h 12v -6a 6 6, 0, 0, 0, -6 -6" transform="rotate(180,382,238)"/><path d="M 376 256v 12h 6a 6 6, 0, 0, 0, 0 -12" transform="rotate(0,382,262)"/><path d="M 376 280v 12h 6a 6 6, 0, 0, 0, 0 -12" transform="rotate(0,382,286)"/><path d="M 376 304v 12h 6a 6 6, 0, 0, 0, 0 -12" transform="rotate(180,382,310)"/><path d="M 376 340v 12h 6a 6 6, 0, 0, 0, 0 -12" transform="rotate(180,382,346)"/><rect x="376" y="364" width="12" height="12" transform="rotate(0,382,370)"/><rect x="376" y="412" width="12" height="12" transform="rotate(0,382,418)"/><path d="M 376 424v 12h 12v -6a 6 6, 0, 0, 0, -6 -6" transform="rotate(180,382,430)"/><path d="M 376 448v 12h 6a 6 6, 0, 0, 0, 0 -12" transform="rotate(180,382,454)"/><path d="M 388 136v 12h 6a 6 6, 0, 0, 0, 0 -12" transform="rotate(-90,394,142)"/><rect x="388" y="148" width="12" height="12" transform="rotate(0,394,154)"/><rect x="388" y="172" width="12" height="12" transform="rotate(0,394,178)"/><path d="M 388 184v 12h 12v -6a 6 6, 0, 0, 0, -6 -6" transform="rotate(90,394,190)"/><path d="M 388 232v 12h 6a 6 6, 0, 0, 0, 0 -12" transform="rotate(0,394,238)"/><path d="M 388 268v 12h 6a 6 6, 0, 0, 0, 0 -12" transform="rotate(180,394,274)"/><rect x="388" y="304" width="12" height="12" transform="rotate(0,394,310)"/><rect x="388" y="316" width="12" height="12" transform="rotate(0,394,322)"/><rect x="388" y="328" width="12" height="12" transform="rotate(0,394,334)"/><path d="M 388 340v 12h 12v -6a 6 6, 0, 0, 0, -6 -6" transform="rotate(90,394,346)"/><rect x="388" y="364" width="12" height="12" transform="rotate(0,394,370)"/><circle cx="394" cy="394" r="6" transform="rotate(0,394,394)"/><rect x="388" y="412" width="12" height="12" transform="rotate(0,394,418)"/><rect x="388" y="424" width="12" height="12" transform="rotate(0,394,430)"/><rect x="388" y="436" width="12" height="12" transform="rotate(0,394,442)"/><path d="M 388 448v 12h 12v -6a 6 6, 0, 0, 0, -6 -6" transform="rotate(90,394,454)"/><path d="M 400 148v 12h 6a 6 6, 0, 0, 0, 0 -12" transform="rotate(0,406,154)"/><rect x="400" y="172" width="12" height="12" transform="rotate(0,406,178)"/><path d="M 400 220v 12h 6a 6 6, 0, 0, 0, 0 -12" transform="rotate(180,406,226)"/><path d="M 400 268v 12h 6a 6 6, 0, 0, 0, 0 -12" transform="rotate(0,406,274)"/><path d="M 400 292v 12h 12v -6a 6 6, 0, 0, 0, -6 -6" transform="rotate(-90,406,298)"/><rect x="400" y="304" width="12" height="12" transform="rotate(0,406,310)"/><rect x="400" y="316" width="12" height="12" transform="rotate(0,406,322)"/><rect x="400" y="364" width="12" height="12" transform="rotate(0,406,370)"/><rect x="400" y="412" width="12" height="12" transform="rotate(0,406,418)"/><rect x="400" y="436" width="12" height="12" transform="rotate(0,406,442)"/><circle cx="418" cy="130" r="6" transform="rotate(0,418,130)"/><path d="M 412 160v 12h 12v -6a 6 6, 0, 0, 0, -6 -6" transform="rotate(-90,418,166)"/><path d="M 412 172v 12h 12v -6a 6 6, 0, 0, 0, -6 -6" transform="rotate(90,418,178)"/><circle cx="418" cy="202" r="6" transform="rotate(0,418,202)"/><path d="M 412 220v 12h 12v -6a 6 6, 0, 0, 0, -6 -6" transform="rotate(0,418,226)"/><rect x="412" y="232" width="12" height="12" transform="rotate(0,418,238)"/><rect x="412" y="244" width="12" height="12" transform="rotate(0,418,250)"/><path d="M 412 256v 12h 12v -6a 6 6, 0, 0, 0, -6 -6" transform="rotate(180,418,262)"/><path d="M 412 292v 12h 12v -6a 6 6, 0, 0, 0, -6 -6" transform="rotate(0,418,298)"/><rect x="412" y="304" width="12" height="12" transform="rotate(0,418,310)"/><path d="M 412 316v 12h 12v -6a 6 6, 0, 0, 0, -6 -6" transform="rotate(90,418,322)"/><path d="M 412 364v 12h 12v -6a 6 6, 0, 0, 0, -6 -6" transform="rotate(0,418,370)"/><rect x="412" y="376" width="12" height="12" transform="rotate(0,418,382)"/><rect x="412" y="388" width="12" height="12" transform="rotate(0,418,394)"/><rect x="412" y="400" width="12" height="12" transform="rotate(0,418,406)"/><rect x="412" y="412" width="12" height="12" transform="rotate(0,418,418)"/><rect x="412" y="424" width="12" height="12" transform="rotate(0,418,430)"/><path d="M 412 436v 12h 12v -6a 6 6, 0, 0, 0, -6 -6" transform="rotate(90,418,442)"/><circle cx="418" cy="466" r="6" transform="rotate(0,418,466)"/><path d="M 424 160v 12h 6a 6 6, 0, 0, 0, 0 -12" transform="rotate(0,430,166)"/><circle cx="430" cy="190" r="6" transform="rotate(0,430,190)"/><path d="M 424 232v 12h 12v -6a 6 6, 0, 0, 0, -6 -6" transform="rotate(0,430,238)"/><rect x="424" y="244" width="12" height="12" transform="rotate(0,430,250)"/><rect x="424" y="256" width="12" height="12" transform="rotate(0,430,262)"/><rect x="424" y="268" width="12" height="12" transform="rotate(0,430,274)"/><path d="M 424 280v 12h 6a 6 6, 0, 0, 0, 0 -12" transform="rotate(90,430,286)"/><circle cx="430" cy="334" r="6" transform="rotate(0,430,334)"/><circle cx="430" cy="358" r="6" transform="rotate(0,430,358)"/><rect x="424" y="388" width="12" height="12" transform="rotate(0,430,394)"/><path d="M 424 448v 12h 6a 6 6, 0, 0, 0, 0 -12" transform="rotate(180,430,454)"/><circle cx="442" cy="154" r="6" transform="rotate(0,442,154)"/><path d="M 436 196v 12h 6a 6 6, 0, 0, 0, 0 -12" transform="rotate(180,442,202)"/><rect x="436" y="244" width="12" height="12" transform="rotate(0,442,250)"/><path d="M 436 268v 12h 6a 6 6, 0, 0, 0, 0 -12" transform="rotate(0,442,274)"/><path d="M 436 364v 12h 6a 6 6, 0, 0, 0, 0 -12" transform="rotate(-90,442,370)"/><rect x="436" y="376" width="12" height="12" transform="rotate(0,442,382)"/><path d="M 436 388v 12h 12v -6a 6 6, 0, 0, 0, -6 -6" transform="rotate(90,442,394)"/><path d="M 436 424v 12h 6a 6 6, 0, 0, 0, 0 -12" transform="rotate(180,442,430)"/><rect x="436" y="448" width="12" height="12" transform="rotate(0,442,454)"/><circle cx="454" cy="130" r="6" transform="rotate(0,454,130)"/><path d="M 448 172v 12h 6a 6 6, 0, 0, 0, 0 -12" transform="rotate(-90,454,178)"/><rect x="448" y="184" width="12" height="12" transform="rotate(0,454,190)"/><path d="M 448 196v 12h 12v -6a 6 6, 0, 0, 0, -6 -6" transform="rotate(90,454,202)"/><path d="M 448 220v 12h 6a 6 6, 0, 0, 0, 0 -12" transform="rotate(180,454,226)"/><path d="M 448 244v 12h 6a 6 6, 0, 0, 0, 0 -12" transform="rotate(0,454,250)"/><path d="M 448 280v 12h 12v -6a 6 6, 0, 0, 0, -6 -6" transform="rotate(-90,454,286)"/><path d="M 448 292v 12h 12v -6a 6 6, 0, 0, 0, -6 -6" transform="rotate(180,454,298)"/><path d="M 448 316v 12h 6a 6 6, 0, 0, 0, 0 -12" transform="rotate(180,454,322)"/><circle cx="454" cy="346" r="6" transform="rotate(0,454,346)"/><rect x="448" y="376" width="12" height="12" transform="rotate(0,454,382)"/><circle cx="454" cy="406" r="6" transform="rotate(0,454,406)"/><rect x="448" y="424" width="12" height="12" transform="rotate(0,454,430)"/><rect x="448" y="436" width="12" height="12" transform="rotate(0,454,442)"/><rect x="448" y="448" width="12" height="12" transform="rotate(0,454,454)"/><path d="M 460 208v 12h 6a 6 6, 0, 0, 0, 0 -12" transform="rotate(-90,466,214)"/><path d="M 460 220v 12h 12v -6a 6 6, 0, 0, 0, -6 -6" transform="rotate(90,466,226)"/><path d="M 460 256v 12h 6a 6 6, 0, 0, 0, 0 -12" transform="rotate(-90,466,262)"/><rect x="460" y="268" width="12" height="12" transform="rotate(0,466,274)"/><rect x="460" y="280" width="12" height="12" transform="rotate(0,466,286)"/><rect x="460" y="292" width="12" height="12" transform="rotate(0,466,298)"/><rect x="460" y="304" width="12" height="12" transform="rotate(0,466,310)"/><path d="M 460 316v 12h 12v -6a 6 6, 0, 0, 0, -6 -6" transform="rotate(90,466,322)"/><path d="M 460 376v 12h 6a 6 6, 0, 0, 0, 0 -12" transform="rotate(0,466,382)"/><path d="M 460 424v 12h 12v -6a 6 6, 0, 0, 0, -6 -6" transform="rotate(0,466,430)"/><rect x="460" y="436" width="12" height="12" transform="rotate(0,466,442)"/><rect x="460" y="448" width="12" height="12" transform="rotate(0,466,454)"/><path d="M 460 460v 12h 6a 6 6, 0, 0, 0, 0 -12" transform="rotate(90,466,466)"/></clipPath><clipPath id="clip-path-corners-square-color-0-0"><path clip-rule="evenodd" d="M 28 58v 24a 30 30, 0, 0, 0, 30 30h 24a 30 30, 0, 0, 0, 30 -30v -24a 30 30, 0, 0, 0, -30 -30h -24a 30 30, 0, 0, 0, -30 30M 58 40h 24a 18 18, 0, 0, 1, 18 18v 24a 18 18, 0, 0, 1, -18 18h -24a 18 18, 0, 0, 1, -18 -18v -24a 18 18, 0, 0, 1, 18 -18" transform="rotate(0,70,70)"/></clipPath><clipPath id="clip-path-corners-dot-color-0-0"><circle cx="70" cy="70" r="18" transform="rotate(0,70,70)"/></clipPath><clipPath id="clip-path-corners-square-color-1-0"><path clip-rule="evenodd" d="M 388 58v 24a 30 30, 0, 0, 0, 30 30h 24a 30 30, 0, 0, 0, 30 -30v -24a 30 30, 0, 0, 0, -30 -30h -24a 30 30, 0, 0, 0, -30 30M 418 40h 24a 18 18, 0, 0, 1, 18 18v 24a 18 18, 0, 0, 1, -18 18h -24a 18 18, 0, 0, 1, -18 -18v -24a 18 18, 0, 0, 1, 18 -18" transform="rotate(90,430,70)"/></clipPath><clipPath id="clip-path-corners-dot-color-1-0"><circle cx="430" cy="70" r="18" transform="rotate(90,430,70)"/></clipPath><clipPath id="clip-path-corners-square-color-0-1"><path clip-rule="evenodd" d="M 28 418v 24a 30 30, 0, 0, 0, 30 30h 24a 30 30, 0, 0, 0, 30 -30v -24a 30 30, 0, 0, 0, -30 -30h -24a 30 30, 0, 0, 0, -30 30M 58 400h 24a 18 18, 0, 0, 1, 18 18v 24a 18 18, 0, 0, 1, -18 18h -24a 18 18, 0, 0, 1, -18 -18v -24a 18 18, 0, 0, 1, 18 -18" transform="rotate(-90,70,430)"/></clipPath><clipPath id="clip-path-corners-dot-color-0-1"><circle cx="70" cy="430" r="18" transform="rotate(-90,70,430)"/></clipPath></defs><rect x="0" y="0" height="500" width="500" clip-path="url('#clip-path-background-color')" fill="#fff"/><rect x="0" y="0" height="500" width="500" clip-path="url('#clip-path-dot-color')" fill="#18417E"/><rect x="28" y="28" height="84" width="84" clip-path="url('#clip-path-corners-square-color-0-0')" fill="#18417E"/><rect x="52" y="52" height="36" width="36" clip-path="url('#clip-path-corners-dot-color-0-0')" fill="#18417E"/><rect x="388" y="28" height="84" width="84" clip-path="url('#clip-path-corners-square-color-1-0')" fill="#18417E"/><rect x="412" y="52" height="36" width="36" clip-path="url('#clip-path-corners-dot-color-1-0')" fill="#18417E"/><rect x="28" y="388" height="84" width="84" clip-path="url('#clip-path-corners-square-color-0-1')" fill="#18417E"/><rect x="52" y="412" height="36" width="36" clip-path="url('#clip-path-corners-dot-color-0-1')" fill="#18417E"/></svg>